<?xml version="1.0" standalone="no"?>
<!DOCTYPE svg PUBLIC "-//W3C//DTD SVG 20010904//EN"
 "http://www.w3.org/TR/2001/REC-SVG-20010904/DTD/svg10.dtd">
<svg version="1.0" xmlns="http://www.w3.org/2000/svg"
 width="697.000000pt" height="1280.000000pt" viewBox="0 0 697.000000 1280.000000"
 preserveAspectRatio="xMidYMid meet">
<metadata>
Created by potrace 1.15, written by Peter Selinger 2001-2017
</metadata>
<g transform="translate(0.000000,1280.000000) scale(0.100000,-0.100000)"
fill="#cddc39" stroke="none">
<path d="M5276 12792 c-8 -14 2 -254 13 -289 l10 -33 -101 0 c-119 0 -184 -15
-332 -77 l-108 -46 -56 59 c-30 33 -56 67 -57 76 -1 10 -8 26 -16 35 -8 10
-20 30 -26 44 -30 71 -211 142 -454 178 -41 7 -104 20 -140 31 -112 35 -304
19 -471 -39 -44 -15 -65 -18 -90 -10 -45 13 -58 11 -58 -6 0 -11 -12 -13 -62
-9 -59 5 -69 3 -145 -35 -232 -113 -403 -246 -493 -383 -47 -72 -90 -109 -117
-102 -15 4 -25 0 -32 -13 -9 -19 -36 -90 -46 -123 -3 -8 -16 -52 -30 -98 -14
-46 -30 -114 -36 -150 -6 -37 -17 -96 -25 -132 -24 -114 -37 -249 -25 -278 16
-42 20 -271 5 -265 -9 3 -13 -7 -11 -37 1 -24 7 -44 14 -47 7 -3 13 -11 13
-18 0 -9 -9 -10 -40 -2 -42 12 -59 5 -42 -15 6 -7 22 -54 36 -103 14 -50 36
-116 50 -148 15 -32 26 -66 26 -77 0 -11 8 -27 18 -37 10 -10 31 -44 47 -76
22 -44 26 -60 17 -69 -19 -19 -14 -46 11 -59 12 -7 39 -27 61 -47 49 -44 126
-78 245 -108 67 -17 107 -34 142 -60 45 -33 49 -39 49 -78 0 -78 -22 -260 -36
-301 -7 -22 -14 -57 -14 -77 0 -21 -4 -38 -9 -38 -5 0 -11 -11 -15 -23 -3 -13
-20 -41 -37 -63 -17 -21 -39 -55 -49 -74 -27 -53 -109 -133 -165 -160 -30 -15
-55 -36 -63 -52 -16 -34 -23 -35 -41 -5 -8 12 -21 33 -30 47 -15 22 -15 24 2
17 33 -13 17 19 -18 36 -23 11 -35 24 -35 37 0 11 -7 20 -15 20 -8 0 -15 5
-15 10 0 6 -5 10 -11 10 -11 0 -9 -28 6 -63 6 -14 2 -20 -14 -24 -11 -3 -21
-9 -21 -14 0 -5 -10 -9 -23 -9 -12 0 -40 -9 -61 -20 -22 -10 -43 -17 -47 -14
-8 4 -63 -8 -109 -23 -8 -3 -26 -7 -40 -9 -48 -6 -100 -27 -100 -41 0 -8 -4
-12 -9 -8 -11 6 -269 -58 -301 -75 -12 -6 -46 -18 -77 -26 -30 -8 -74 -25 -97
-39 -45 -26 -56 -25 -56 9 0 21 -30 78 -55 102 -7 8 -21 37 -30 66 -10 29 -22
59 -28 66 -12 15 -41 16 -31 1 3 -6 0 -15 -7 -20 -12 -8 -11 -11 4 -20 9 -5
17 -17 17 -25 0 -8 18 -69 40 -135 58 -173 60 -195 20 -264 -18 -31 -50 -77
-71 -101 -22 -25 -39 -51 -39 -58 0 -8 -17 -49 -39 -92 -43 -88 -118 -261
-150 -344 -11 -30 -32 -84 -46 -120 -15 -36 -33 -85 -42 -110 -9 -25 -24 -54
-33 -65 -10 -11 -30 -65 -44 -121 -27 -108 -124 -369 -213 -574 -30 -69 -70
-162 -89 -208 -19 -46 -45 -100 -58 -121 -13 -20 -40 -69 -60 -109 -28 -55
-33 -72 -21 -72 23 0 18 -16 -14 -42 -17 -14 -53 -72 -89 -143 -33 -66 -81
-155 -106 -198 -64 -108 -139 -259 -167 -337 -12 -36 -36 -86 -51 -111 -15
-25 -28 -50 -28 -54 0 -4 -10 -24 -22 -43 l-22 -35 -11 33 c-6 19 -17 36 -25
38 -10 4 -11 -5 -5 -44 4 -27 7 -62 7 -77 -1 -27 153 -347 210 -438 151 -241
368 -514 588 -741 52 -54 100 -108 106 -120 7 -13 27 -34 46 -48 18 -13 100
-85 182 -160 374 -340 419 -375 504 -389 56 -9 117 -52 176 -124 28 -35 30
-45 36 -146 4 -59 10 -113 14 -120 5 -7 1 -20 -8 -30 -14 -15 -15 -23 -5 -44
10 -21 9 -33 -5 -61 -10 -21 -16 -60 -16 -103 -1 -37 -1 -79 -1 -93 0 -75 -12
-190 -20 -190 -4 0 -6 -13 -3 -30 5 -20 3 -30 -6 -30 -7 0 -10 -6 -7 -12 6
-16 -9 -214 -22 -293 -6 -33 -22 -163 -36 -290 -53 -474 -85 -680 -156 -1020
-22 -104 -56 -266 -75 -360 -41 -205 -98 -421 -131 -494 l-23 -54 -78 6 -77 6
40 -21 c22 -12 53 -24 70 -28 23 -4 31 -13 36 -36 3 -17 9 -36 13 -42 10 -17
51 -15 66 3 17 20 98 31 123 16 46 -29 507 -40 618 -15 39 9 72 14 74 12 2 -1
10 -57 19 -123 9 -66 23 -144 31 -173 15 -51 18 -53 43 -47 64 16 150 26 318
35 158 9 251 22 306 45 9 3 25 2 36 -4 11 -6 23 -6 28 -1 5 4 79 14 164 20 85
7 165 16 178 21 12 5 22 5 22 1 0 -5 26 -5 58 0 86 11 247 27 543 52 147 13
272 27 280 32 8 4 27 7 44 6 31 -3 302 21 435 38 153 20 288 32 385 36 141 5
339 30 364 46 17 10 23 10 29 1 5 -8 13 -9 22 -3 28 18 48 11 59 -20 5 -16 14
-30 20 -30 12 0 5 189 -10 272 -13 76 -2 208 18 208 19 0 138 45 185 70 20 11
44 20 52 20 9 0 16 7 16 15 0 8 4 15 9 15 5 0 48 18 95 40 47 22 90 40 96 40
6 0 18 4 28 9 38 20 91 41 104 41 8 0 64 22 124 49 60 27 136 56 169 66 33 9
69 22 80 28 105 56 122 61 168 42 12 -5 16 -3 12 6 -3 9 27 31 93 66 l97 52
-55 1 c-64 0 -175 -24 -207 -46 l-23 -14 0 125 c0 148 -14 284 -42 414 -30
142 -154 599 -182 674 -13 36 -22 68 -19 71 4 3 -1 14 -9 23 -30 34 -58 115
-58 165 0 39 -3 49 -14 45 -9 -4 -16 4 -19 21 -3 15 -23 62 -44 105 -21 42
-42 87 -48 99 -26 57 -135 264 -167 316 -11 17 -16 32 -12 32 4 0 0 8 -8 18
-8 9 -39 62 -68 117 -119 224 -136 255 -171 311 -134 221 -269 464 -269 485 0
9 -7 19 -15 23 -8 3 -15 14 -15 24 0 11 -7 25 -14 32 -8 6 -23 33 -32 58 -10
26 -25 56 -35 67 -10 11 -34 52 -54 90 -20 39 -44 78 -53 88 -15 17 -15 19 1
28 9 6 17 19 17 29 0 11 5 20 10 20 6 0 10 11 10 24 0 13 7 29 15 36 8 7 15
22 15 35 0 12 12 34 28 48 55 53 64 66 59 82 -4 9 1 20 13 27 11 7 20 21 20
32 0 10 14 34 30 53 17 18 30 40 30 48 0 8 5 15 10 15 6 0 10 9 10 20 0 11 5
20 10 20 6 0 10 6 10 14 0 7 7 19 16 27 10 8 14 23 12 41 -4 23 1 32 24 46 15
9 28 24 28 34 0 10 5 18 10 18 6 0 10 13 10 29 0 16 7 34 14 41 19 15 56 91
56 113 0 9 4 17 8 17 9 0 42 64 42 83 0 7 14 39 30 72 29 58 41 135 20 135 -5
0 -10 -5 -10 -12 0 -6 -2 -9 -5 -7 -2 3 2 32 10 64 7 33 11 64 8 69 -4 5 -5
28 -5 50 3 76 -19 159 -168 610 -129 392 -250 787 -250 818 0 6 -6 24 -14 41
-62 142 -165 501 -205 717 -18 95 -30 146 -42 175 -7 17 -15 50 -18 75 -4 28
-11 44 -19 43 -7 -2 -12 6 -12 18 0 11 -9 34 -20 49 -13 18 -16 31 -10 35 13
8 13 55 0 55 -5 0 -10 7 -10 15 0 9 -9 33 -20 55 -11 22 -20 47 -20 57 -1 10
-14 34 -30 53 -17 19 -30 40 -30 46 0 7 -6 19 -12 26 -7 8 -18 23 -24 33 -14
26 -57 34 -47 9 4 -12 2 -15 -8 -12 -8 3 -13 15 -12 27 3 23 -12 29 -20 9 -3
-7 -6 -3 -6 10 -1 12 -6 22 -12 22 -5 0 -7 -4 -4 -10 9 -15 0 -12 -39 11 -20
12 -36 25 -36 30 0 5 -11 9 -25 9 -14 0 -25 3 -25 8 0 7 -48 32 -63 32 -12 0
-81 56 -141 116 -56 55 -103 88 -126 89 -8 0 -14 5 -13 12 1 6 -17 21 -40 32
-23 11 -48 30 -55 41 -15 24 -50 27 -59 4 -3 -10 8 -29 31 -53 37 -38 38 -51
4 -51 -10 0 -28 -10 -39 -21 -20 -20 -26 -21 -73 -10 -41 9 -64 24 -119 75
-37 34 -69 60 -72 58 -13 -13 -6 370 7 386 6 6 19 12 30 12 10 0 35 7 56 16
33 14 35 17 17 24 -17 6 -9 12 45 38 36 17 72 37 81 43 13 10 28 5 81 -25 39
-21 72 -34 82 -30 9 3 16 1 16 -5 0 -20 17 -12 23 11 5 18 8 19 21 9 17 -14
86 -7 86 8 0 5 16 12 35 15 19 4 40 12 47 19 17 17 50 31 66 28 6 -1 12 3 12
10 0 13 38 49 51 49 5 0 6 7 3 15 -4 9 0 15 10 15 8 0 23 11 31 24 9 13 34 36
56 50 22 15 37 32 33 37 -4 7 -40 10 -97 7 -89 -3 -91 -2 -104 22 -10 20 -10
27 0 35 7 6 11 19 9 29 -2 11 4 26 14 35 48 41 67 70 55 85 -13 16 1 32 19 21
6 -3 10 1 10 10 0 8 6 18 14 21 8 3 12 12 9 20 -3 8 1 14 11 14 9 0 16 5 16
11 0 6 10 19 23 30 12 10 16 18 9 19 -8 0 -5 10 9 29 12 16 19 36 16 44 -8 22
3 28 20 11 14 -13 13 -17 -2 -34 -10 -11 -13 -20 -8 -20 6 0 19 17 28 38 10
20 26 46 36 57 10 11 18 24 17 28 0 5 9 19 20 32 31 36 42 61 42 97 0 19 5 39
11 45 8 8 5 13 -10 18 -29 9 -27 49 4 100 29 47 31 55 8 55 -14 0 -14 2 2 20
20 22 26 61 11 72 -5 4 -4 24 4 51 6 25 9 50 6 56 -4 6 16 8 62 4 74 -6 115 6
106 32 -4 10 0 15 15 15 16 0 21 6 21 29 0 20 6 30 19 34 24 6 76 114 91 192
7 33 17 78 23 100 6 22 11 93 11 158 1 64 5 117 9 117 5 0 6 24 3 53 -10 106
-24 206 -32 229 -4 13 -8 37 -9 53 -5 69 -36 239 -45 250 -6 7 -6 15 1 22 8 8
7 21 -2 47 -11 30 -11 41 0 57 15 25 7 37 -14 19 -25 -21 -30 -4 -27 86 2 47
0 94 -3 104 -7 21 -20 26 -29 12z m-211 -1522 c3 -5 2 -10 -4 -10 -5 0 -13 5
-16 10 -3 6 -2 10 4 10 5 0 13 -4 16 -10z m75 -30 c13 -8 13 -10 -2 -10 -9 0
-20 5 -23 10 -8 13 5 13 25 0z m-840 -1880 c0 -5 -2 -10 -4 -10 -3 0 -8 5 -11
10 -3 6 -1 10 4 10 6 0 11 -4 11 -10z m670 -425 c7 -9 8 -15 2 -15 -5 0 -12 7
-16 15 -3 8 -4 15 -2 15 2 0 9 -7 16 -15z m-3376 -2067 l-15 -42 30 28 c23 22
32 26 35 15 86 -259 119 -408 146 -669 12 -113 28 -254 36 -315 26 -197 53
-447 64 -590 15 -202 24 -815 12 -815 -6 0 -66 62 -135 138 -69 75 -139 150
-157 165 -35 31 -161 220 -205 307 -61 120 -75 173 -72 271 l2 92 -57 51 c-53
47 -58 55 -58 93 0 23 12 74 26 114 l26 73 -25 22 c-15 12 -51 28 -82 34 -30
6 -55 16 -55 21 0 14 102 108 118 109 6 0 12 2 12 5 0 12 -34 71 -58 103 l-26
34 49 91 c27 51 60 110 75 132 15 22 31 51 35 65 4 14 13 35 21 47 7 11 36 65
65 120 86 163 193 343 204 343 2 0 -3 -19 -11 -42z m3096 -201 c18 -45 35 -86
40 -92 4 -5 10 -23 13 -40 7 -42 93 -283 106 -299 6 -7 20 -41 31 -76 11 -35
31 -83 45 -105 27 -47 24 -79 -13 -152 -29 -56 -28 -72 8 -119 35 -46 37 -65
11 -88 -11 -10 -27 -41 -36 -69 -27 -83 -77 -197 -86 -197 -11 0 -77 132 -108
215 -13 33 -34 86 -47 118 -22 54 -74 247 -88 327 -16 92 -25 244 -16 255 7 8
6 23 -1 45 -9 25 -9 34 1 40 7 4 16 45 21 94 9 85 21 126 38 126 5 0 12 21 16
48 13 86 22 81 65 -31z m-4220 -81 c0 -5 -7 -3 -15 4 -8 7 -12 17 -9 22 7 10
24 -9 24 -26z m-67 -117 c-18 -30 -39 -46 -49 -37 -6 6 47 68 59 68 4 0 0 -14
-10 -31z m-77 -107 c-9 -17 -21 -34 -27 -37 -6 -4 -1 12 11 35 12 23 24 40 26
37 3 -3 -2 -19 -10 -35z m-36 -79 c0 -5 -4 -15 -10 -23 -11 -18 -25 -7 -17 15
6 15 27 21 27 8z"/>
<path d="M1567 6803 c-4 -3 -7 -13 -7 -22 1 -13 3 -13 11 2 11 19 8 33 -4 20z"/>
<path d="M6380 2711 c0 -5 5 -13 10 -16 6 -3 10 -2 10 4 0 5 -4 13 -10 16 -5
3 -10 2 -10 -4z"/>
<path d="M6413 2645 c15 -54 19 -65 27 -65 11 0 -6 60 -21 74 -8 8 -10 6 -6
-9z"/>
<path d="M6460 2538 c0 -9 7 -22 17 -29 15 -13 15 -12 3 11 -17 34 -20 36 -20
18z"/>
<path d="M6853 1225 c-3 -9 -3 -18 0 -21 9 -9 27 6 27 22 0 19 -19 18 -27 -1z"/>
</g>
</svg>
